<svg width="512" height="512" xmlns="http://www.w3.org/2000/svg">

 <g>
  <title>background</title>
  <rect fill="none" id="canvas_background" height="402" width="582" y="-1" x="-1"/>
 </g>
 <g>
  <title>Layer 1</title>
  <circle id="svg_2" r="256" fill="#f063b8" cy="256" cx="256"/>
  <path id="svg_3" fill="#FFFFFF" d="m301.6,151.2c15.6,0 36.3,0 36.3,0l0,-54.2c0,0 -21.8,0 -51.4,0c-29.6,0 -68.1,19 -68.1,74.2c0,10.3 0,25.4 0,43l-49.1,0l0,56.1l49.1,0c0,69.9 0,146 0,146l21.8,0l17.3,0l19.5,0c0,0 0,-78.8 0,-146l48.8,0l8.1,-56.1l-56.9,0c0,-18.4 0,-31.8 0,-35.7c0,-18.4 9,-27.3 24.6,-27.3z"/>
 </g>
</svg>