<svg width="512" height="512" xmlns="http://www.w3.org/2000/svg">

 <g>
  <title>background</title>
  <rect fill="none" id="canvas_background" height="402" width="582" y="-1" x="-1"/>
 </g>
 <g>
  <title>Layer 1</title>
  <circle id="svg_2" r="256" fill="#f063b8" cy="256" cx="256"/>
  <path id="svg_4" fill="#FFFFFF" d="m256,93.9c-89.5,0 -162.1,72.6 -162.1,162.1c0,70.5 45,130.4 107.8,152.8c0.3,0.1 1.4,0.5 1.7,0.6c0.9,0.3 1.9,0.5 2.9,0.5c5.3,0 9.5,-4.3 9.5,-9.5c0,-0.3 0,-0.5 0,-0.8l0,0c0,-8.6 0,-19.5 0,-28.2c-10.3,2.1 -25.9,4.1 -34.4,0c-11,-5.3 -16.6,-12.1 -21.9,-25.5c-6.6,-16.3 -21.8,-20.8 -22.4,-23.6c-0.6,-2.9 16.1,-7.2 24.7,2.7c8.6,9.9 17.3,29.7 35.8,27.8c9.1,-0.9 15,-2.4 18.7,-3.5c0.7,-6.4 2.8,-14.3 8.1,-19.9c-43.5,-7.2 -72.5,-30.6 -72.5,-76.5c0,-20.9 6,-37.1 16.6,-49.2c-1.8,-10 -4.8,-33.2 3.2,-41.3c0,0 11.3,-7 43.7,15.8c12.1,-2.8 25.5,-4.2 39.8,-4.2l0,0c0.3,0 0.5,0 0.8,0c0.3,0 0.5,0 0.8,0l0,0c14.4,0.1 27.8,1.5 39.8,4.2c32.4,-22.8 43.7,-15.8 43.7,-15.8c8,8.2 5,31.4 3.2,41.3c10.6,12.2 16.6,28.4 16.6,49.2c0,45.9 -28.9,69.3 -72.5,76.5c8.3,8.7 8.6,22.8 8.6,28.6c0,5.5 0,42.3 0,42.5c0,5.3 4.3,9.5 9.5,9.5c0.8,0 1.5,-0.1 2.3,-0.3c0.2,0 0.8,-0.2 1,-0.3c63.5,-22 109.1,-82.3 109.1,-153.3c0,-89.7 -72.6,-162.2 -162.1,-162.2z"/>
 </g>
</svg>