<svg width="512" height="512" xmlns="http://www.w3.org/2000/svg">

 <g>
  <title>background</title>
  <rect fill="none" id="canvas_background" height="402" width="582" y="-1" x="-1"/>
 </g>
 <g>
  <title>Layer 1</title>
  <path id="svg_2" fill="#f063b8" d="m0,249.5l0,13.8c3.6,132.4 110.2,238.7 237.1,248.7l39,0c127.6,-10.1 232.4,-117.3 235.9,-248.9l0,-13.6c-3.5,-133.9 -111.9,-242.5 -242.6,-249.2c-140.6,-7.1 -265.5,105.7 -269.4,249.2z"/>
  <path id="svg_4" fill="#FFFFFF" d="m257.2,128.6c40.8,0 45.6,0.1 61.8,0.9c14.9,0.6 22.9,3.2 28.3,5.3c7.1,2.8 12.2,6.2 17.5,11.6c5.3,5.4 8.7,10.6 11.5,17.8c2.1,5.5 4.5,13.7 5.3,28.9c0.8,16.4 0.9,21.3 0.9,62.8s-0.1,46.4 -0.9,62.8c-0.6,15.1 -3.1,23.4 -5.3,28.9c-2.8,7.2 -6.1,12.4 -11.5,17.8c-5.3,5.4 -10.4,8.8 -17.5,11.6c-5.4,2.2 -13.5,4.7 -28.3,5.3c-16.1,0.8 -21,0.9 -61.8,0.9s-45.6,-0.1 -61.8,-0.9c-14.9,-0.6 -22.9,-3.2 -28.3,-5.3c-7.1,-2.8 -12.2,-6.2 -17.5,-11.6s-8.7,-10.6 -11.5,-17.8c-2.1,-5.5 -4.5,-13.7 -5.3,-28.9c-0.8,-16.4 -0.9,-21.3 -0.9,-62.8s0.1,-46.4 0.9,-62.8c0.6,-15.1 3.1,-23.4 5.3,-28.9c2.8,-7.2 6.1,-12.4 11.5,-17.8c5.3,-5.4 10.4,-8.8 17.5,-11.6c5.4,-2.2 13.5,-4.7 28.3,-5.3c16.1,-0.7 21,-0.9 61.8,-0.9m0,-28c-41.5,0 -46.7,0.2 -62.9,1s-27.4,3.4 -37.1,7.2c-10.1,4 -18.6,9.3 -27,18c-8.5,8.7 -13.7,17.3 -17.6,27.6c-3.8,9.8 -6.4,21.2 -7.1,37.7c-0.8,16.5 -0.9,21.8 -0.9,64s0.2,47.5 0.9,64c0.8,16.5 3.4,27.8 7.1,37.7c3.9,10.2 9.1,18.9 17.6,27.6s17,14 27,18c9.7,3.9 20.9,6.5 37.1,7.2c16.3,0.8 21.5,1 62.9,1s46.7,-0.2 62.9,-1c16.2,-0.8 27.4,-3.4 37.1,-7.2c10.1,-4 18.6,-9.3 27,-18c8.5,-8.7 13.7,-17.3 17.6,-27.6c3.8,-9.8 6.4,-21.2 7.1,-37.7c0.8,-16.5 0.9,-21.8 0.9,-64s-0.2,-47.5 -0.9,-64c-0.8,-16.5 -3.4,-27.8 -7.1,-37.7c-3.9,-10.2 -9.1,-18.9 -17.6,-27.6s-17,-14 -27,-18c-9.7,-3.9 -20.9,-6.5 -37.1,-7.2c-16.2,-0.8 -21.5,-1 -62.9,-1l0,0z"/>
  <path id="svg_5" fill="#FFFFFF" d="m257.2,176.2c-43.4,0 -78.4,35.7 -78.4,79.8s35.1,79.8 78.4,79.8s78.4,-35.7 78.4,-79.8s-35.1,-79.8 -78.4,-79.8zm0,131.6c-28.1,0 -50.9,-23.1 -50.9,-51.8s22.8,-51.8 50.9,-51.8s50.9,23.1 50.9,51.8c0,28.7 -22.8,51.8 -50.9,51.8z"/>
  <ellipse id="svg_6" ry="18.6" rx="18.3" fill="#FFFFFF" cy="173" cx="338.7"/>
 </g>
</svg>