<svg width="48" height="48" xmlns="http://www.w3.org/2000/svg">

 <g>
  <title>background</title>
  <rect fill="none" id="canvas_background" height="402" width="582" y="-1" x="-1"/>
 </g>
 <g>
  <title>Layer 1</title>
  <path id="svg_1" fill="none" d="m0,0l48,0l0,48l-48,0l0,-48z"/>
  <path fill="#f063b8" id="svg_2" d="m23.99,4c-11.05,0 -19.99,8.95 -19.99,20s8.94,20 19.99,20c11.05,0 20.01,-8.95 20.01,-20s-8.96,-20 -20.01,-20zm13.85,12l-5.9,0c-0.65,-2.5 -1.56,-4.9 -2.76,-7.12c3.68,1.26 6.74,3.81 8.66,7.12zm-13.84,-7.93c1.67,2.4 2.97,5.07 3.82,7.93l-7.64,0c0.85,-2.86 2.15,-5.53 3.82,-7.93zm-15.48,19.93c-0.33,-1.28 -0.52,-2.62 -0.52,-4s0.19,-2.72 0.52,-4l6.75,0c-0.16,1.31 -0.27,2.64 -0.27,4c0,1.36 0.11,2.69 0.28,4l-6.76,0zm1.63,4l5.9,0c0.65,2.5 1.56,4.9 2.76,7.13c-3.68,-1.26 -6.74,-3.82 -8.66,-7.13zm5.9,-16l-5.9,0c1.92,-3.31 4.98,-5.87 8.66,-7.13c-1.2,2.23 -2.11,4.63 -2.76,7.13zm7.95,23.93c-1.66,-2.4 -2.96,-5.07 -3.82,-7.93l7.64,0c-0.86,2.86 -2.16,5.53 -3.82,7.93zm4.68,-11.93l-9.36,0c-0.19,-1.31 -0.32,-2.64 -0.32,-4c0,-1.36 0.13,-2.69 0.32,-4l9.36,0c0.19,1.31 0.32,2.64 0.32,4c0,1.36 -0.13,2.69 -0.32,4zm0.51,11.12c1.2,-2.23 2.11,-4.62 2.76,-7.12l5.9,0c-1.93,3.31 -4.99,5.86 -8.66,7.12zm3.53,-11.12c0.16,-1.31 0.28,-2.64 0.28,-4c0,-1.36 -0.11,-2.69 -0.28,-4l6.75,0c0.33,1.28 0.53,2.62 0.53,4s-0.19,2.72 -0.53,4l-6.75,0z"/>
 </g>
</svg>