<svg width="512" height="512" xmlns="http://www.w3.org/2000/svg">

 <g>
  <title>background</title>
  <rect fill="none" id="canvas_background" height="402" width="582" y="-1" x="-1"/>
 </g>
 <g>
  <title>Layer 1</title>
  <circle id="svg_2" r="256" fill="#f063b8" cy="256" cx="256"/>
  <path id="linkedin-square-rounded-icon_1_" fill="#FFFFFF" d="m186.8,371.7l-51.9,0l0,-167.6l51.9,0l0,167.6zm-26.2,-189.5c-16.9,0 -30.7,-13.8 -30.7,-30.9c0,-17.1 13.7,-30.9 30.7,-30.9c16.9,0 30.7,13.8 30.7,30.9c0,17 -13.8,30.9 -30.7,30.9zm220.6,189.5l-51.6,0c0,0 0,-63.8 0,-88c0,-24.1 -9.2,-37.6 -28.2,-37.6c-20.8,0 -31.6,14 -31.6,37.6c0,25.8 0,88 0,88l-49.8,0l0,-167.6l49.8,0l0,22.6c0,0 15,-27.7 50.5,-27.7c35.5,0 61,21.7 61,66.6c-0.1,44.9 -0.1,106.1 -0.1,106.1z"/>
 </g>
</svg>