<svg width="512" height="512" xmlns="http://www.w3.org/2000/svg">

 <g>
  <title>background</title>
  <rect fill="none" id="canvas_background" height="402" width="582" y="-1" x="-1"/>
 </g>
 <g>
  <title>Layer 1</title>
  <path id="svg_2" fill="#f063b8" d="m512,256c0,141.4 -114.6,256 -256,256c-141.4,0 -256,-114.6 -256,-256c0,-141.4 114.6,-256 256,-256c141.4,0 256,114.6 256,256z"/>
  <path id="twitter-4-icon_3_" fill="#FFFFFF" d="m358.5,202.9c3.3,73.9 -51.8,156.2 -149.3,156.2c-29.7,0 -57.3,-8.7 -80.5,-23.6c27.9,3.3 55.7,-4.4 77.8,-21.7c-23,-0.4 -42.4,-15.6 -49.1,-36.5c8.2,1.6 16.3,1.1 23.7,-0.9c-25.3,-5.1 -42.7,-27.8 -42.1,-52.2c7.1,3.9 15.2,6.3 23.8,6.6c-23.4,-15.6 -30,-46.5 -16.3,-70.1c25.9,31.8 64.6,52.7 108.3,54.9c-7.6,-32.9 17.3,-64.5 51.2,-64.5c15.1,0 28.7,6.4 38.3,16.6c12,-2.4 23.2,-6.7 33.4,-12.7c-3.9,12.3 -12.3,22.6 -23.1,29.1c10.6,-1.3 20.7,-4.1 30.2,-8.3c-7.2,10.5 -16.1,19.7 -26.3,27.1z"/>
 </g>
</svg>