<svg xmlns="http://www.w3.org/2000/svg" data-name="Layer 1" width="744" height="665" style=""><rect id="backgroundrect" width="100%" height="100%" x="0" y="0" fill="none" stroke="none" class="" style=""/><title>team_collaboration</title><g class="currentLayer" style=""><title>Layer 1</title><polygon points="398.52600717544556,582.5079956054688 395.52600717544556,621.5079956054688 424.52600717544556,624.5079956054688 417.52600717544556,577.5079956054688 398.52600717544556,582.5079956054688 " fill="#9f616a" id="svg_15" class="" fill-opacity="1"/><path d="M297.48725587677,227.35490881347658 l0.00006000000000000006,0 c24.71917,7.61743 37.905,36.03129 29.45129,63.46412 l-10.74047,34.85372 l-10.71941,-3.30328 l-2.22649,-14.826 l-2.42793,13.39169 l-68.90022,-21.2322 l-2.02409,-13.47818 l-2.20725,12.17426 l-7.75742,-2.39052 l8.4332,-27.36641 C238.09645587677,237.07420881347656 269.04198587677,218.58924881347656 297.48725587677,227.35490881347658 z" fill="#2f2e41" id="svg_16" class=""/><path d="M259.09510587677,331.96605881347654 a16.23161,16.23161 0 0 0 -18.85239,14.93 c-0.43100000000000016,6.04269 1.6546600000000002,13.117 11.02207,18.3561 c20.00793,11.19023 63.39615,35.58538 63.39615,35.58538 l82.78374,15.898670000000001 s41.8334,33.38085 47.07452,14.39483 S404.82451587677,400.5531888134766 404.82451587677,400.5531888134766 l-76.05358,-19.50461 l-48.46134,-35.05246 S271.42935587677005,334.1425988134766 259.09510587677,331.96605881347654 z" fill="#9f616a" id="svg_17" class="" fill-opacity="1"/><polygon points="232.63600778579712,409.74700927734375 240.9559998512268,433.1960144042969 290.8810181617737,421.0929870605469 278.02100229263306,403.69500732421875 232.63600778579712,409.74700927734375 " fill="#9f616a" id="svg_18" class="" fill-opacity="1"/><polygon points="99.12500619888306,630.2470092773438 61.304007053375244,626.4639892578125 87.77900552749634,600.7459716796875 106.6900086402893,613.60498046875 99.12500619888306,630.2470092773438 " fill="#9f616a" id="svg_19" class="" fill-opacity="1"/><circle cx="288.74359607696533" cy="274.7702941894531" r="31.062990188598633" fill="#9f616a" id="svg_20" class="" fill-opacity="1"/><path d="M264.40566587677,279.64030881347657 s-17.39794,20.42367 -26.47512,23.44939 s-31.77015,31.77015 -20.42367,50.68095 s52.95025,-4.53859 52.95025,-4.53859 l-1.51287,-18.910800000000002 s17.39794,-30.25728 21.1801,-32.52658 S264.40566587677,279.64030881347657 264.40566587677,279.64030881347657 z" fill="#9f616a" id="svg_21" class="" fill-opacity="1"/><path d="M261.38123587677,316.1618288134766 c-11.56552,-17.41336 -38.39294,-14.29783 -45.04734,5.519 q-0.17768,0.52913 -0.3398800000000004,1.07614 c-6.05146,20.42366 3.02573,55.21954 3.02573,55.21954 L232.63551587677,418.8238088134766 s35.5523,-16.64151 61.271,11.34648 L290.12435587677004,401.42590881347655 s10.59,-24.20583 -3.02573,-41.60376 C278.43336587677004,348.74982881347654 270.38084587677,329.71190881347655 261.38123587677,316.1618288134766 z" fill="#575a89" id="svg_22" class=""/><path d="M82.48376587677001,624.9515388134765 l-1.51287,11.34648 s-49.92451,-9.83362 -60.51456,-0.75643 s-10.59005,15.12864 -18.910800000000002,9.07718 c-3.53632,-2.57187 -0.51438,-8.83276 4.13006,-15.18246 a76.42425,76.42425 0 0 1 28.1662,-23.38688 c12.48395,-6.11222 29.73116,-14.99328 29.73116,-17.40663 c0,-3.78216 13.61578,-15.12864 18.91081,-9.07718 s15.12864,22.693 15.12864,22.693 z" fill="#2f2e41" id="svg_23" class=""/><path d="M393.85674587677,603.5084188134765 s-11.0877,39.31093 -7.05581,41.32687 s12.09567,8.06378 24.19134,8.06378 c7.14718,0 17.81368,3.87125 25.345,7.0388 a61.09527,61.09527 0 0 0 27.84692,4.7904 c6.349,-0.43722000000000016 11.74668,-1.9258700000000002 11.31829,-5.78136 c-1.008,-9.07176 -20.15945,-11.0877 -20.15945,-11.0877 L435.18361587677,621.6519088134766 s-3.5279,-16.63155 -6.55182,-16.63155 a6.62232,6.62232 0 0 1 -4.53588,-1.512 z" fill="#2f2e41" id="svg_24" class=""/><path d="M280.54687587677,237.11679881347658 a24.5627,24.5627 0 0 1 21.43381,-3.74405 l0.8787300000000003,0.27079 c16.94257,5.221 25.95276,24.7845 20.1249,43.69636 l0,0.00007000000000000009 l-5.6770000000000005,-1.7494200000000002 l1.23368,-7.26105 l-3.49474,6.56429 l-33.67,-10.37571 l-1.00155,-6.77325 l-1.11411,6.12129 l-6.62385,-2.0412 q-11.73189,21.59673 -0.86756,50.15667 l-11.28357,-3.47713 l-2.003,-13.54649 l-2.2283,12.24257 l-21.50925,-6.62826 l4.13774,-28.46224 C245.15038587677003,251.77097881347657 262.28282587677,238.16554881347656 280.54687587677,237.11679881347658 z" fill="#2f2e41" id="svg_25" class=""/><rect x="419.60800647735596" y="53" width="257" height="481" fill="#f2f2f2" id="svg_26" class=""/><path d="M738.60800587677,534.9999988134765 h-320 v-535 h320 zm-318,-2 h316 v-531 h-316 z" fill="#3f3d56" id="svg_27" class=""/><rect x="44.019463931081276" y="662.8411254882812" width="699.5095755063339" height="2.24072003364563" fill="#3f3d56" id="svg_28" class=""/><path d="M699.60800587677,280.99999881347657 h-242 v-222 h242 zm-240,-2 h238 v-218 h-238 z" fill="#3f3d56" id="svg_29" class=""/><polygon points="459.3150086402893,222.13900756835938 457.90100717544556,220.72500610351562 533.323980808258,145.302001953125 577.6079773902893,189.58599853515625 697.4010071754456,69.79299926757812 698.8150086402893,71.20700073242188 577.6079773902893,192.41400146484375 533.323980808258,148.1300048828125 459.3150086402893,222.13900756835938 " fill="#3f3d56" id="svg_30" class=""/><circle cx="533.6079759597778" cy="147" r="15" fill="#f063b8" id="svg_31" class=""/><circle cx="578.6079759597778" cy="188" r="15" fill="#f063b8" id="svg_32" class=""/><circle cx="698.6079759597778" cy="70" r="15" fill="#f063b8" id="svg_33" class=""/><rect x="487.60800647735596" y="343" width="182" height="18" fill="#3f3d56" id="svg_34" class=""/><polygon points="620.6079773902893,491 536.6079773902893,491 536.6079773902893,407 593.6079773902893,407 593.6079773902893,409 538.6079773902893,409 538.6079773902893,489 618.6079773902893,489 618.6079773902893,449 620.6079773902893,449 620.6079773902893,491 " fill="#3f3d56" id="svg_35" class=""/><polygon points="578.1749939918518,469.0899963378906 560.4080262184143,445.3999938964844 566.8079895973206,440.6000061035156 579.041021823883,456.9100036621094 635.280035495758,400.6719970703125 640.9359803199768,406.3280029296875 578.1749939918518,469.0899963378906 " fill="#f063b8" id="svg_36" class=""/><path d="M294.28473587677,432.0613688134765 s-18.15437,-24.20583 -55.21954,-9.83362 l-6.80789,18.910800000000002 s-39.33447,31.01372 -17.39794,78.66893 L213.34651587677,590.9120988134765 l-6.05146,20.42366 l-109.68264,-9.07718 l-3.78216,34.79587 L113.49751587677002,638.5673088134765 s111.19551,43.87306 128.59345,16.64151 S295.79759587677,520.5639088134766 295.79759587677,520.5639088134766 l94.1818,14.10291 s-2.75643,29.47512 0.26929,33.25728 s1.51287,19.66723 3.02573,22.693 s0.252,10.89135 0.252,10.89135 l31.24888,-1.032 V585.3477788134766 s3.78216,-20.42367 3.78216,-25.71869 s22.693,-74.88678 -16.6415,-80.93823 s-107.04114,-17.12864 -107.04114,-17.12864 z" fill="#2f2e41" id="svg_37" class=""/><path d="M258.94304587677004,313.8260488134766 a18.75317,18.75317 0 0 0 -25.97869,-9.852 c-6.24873,3.153 -12.02946,9.41336 -11.67531,21.80861 c0.75643,26.47513 2.26929,83.964 2.26929,83.964 l33.283,91.52828 s-8.32075,61.271 13.61578,55.21954 s6.80789,-57.48884 6.80789,-57.48884 L251.54632587677003,412.0159088134766 l6.05145,-68.83532 S264.09268587677,327.34926881347656 258.94304587677004,313.8260488134766 z" fill="#9f616a" id="svg_38" class="" fill-opacity="1"/></g></svg>