<svg xmlns="http://www.w3.org/2000/svg" data-name="Layer 1" width="1134.4468994140625" height="709.7838134765625"><rect id="backgroundrect" width="100%" height="100%" x="0" y="0" fill="none" stroke="none"/><title>destinations</title><g class="currentLayer" style=""><title>Layer 1</title><path d="M1118.2616597070312,286.72813673828125 c-41.62683,-163.68615 -185.46063,-281.84467 -354.2904,-286.5839 C674.7160297070312,-2.361253261718744 580.7946097070312,27.240726738281253 512.4128897070312,130.82890673828126 c-122.2397,185.175 7.51192,313.13661 97.97132,373.94142 A566.02691,566.02691 0 0 1 727.3797597070312,609.9255067382812 c61.10237,72.50779 178.64942,162.60891 318.64264000000003,21.43431 C1147.4896697070312,529.0362867382812 1145.9892397070312,395.7592867382813 1118.2616597070312,286.72813673828125 z" fill="#fef0f8" id="svg_1" class="selected" fill-opacity="1"/><path d="M156.23973970703125,410.82600673828125 c-1.12158,-1.66114 -2.22412,-3.36621 -3.27734,-5.06836 l1.70117,-1.05274 c1.03906,1.68067 2.12695,3.36329 3.2334,5.002 z" fill="#3f3d56" id="svg_2"/><path d="M146.93212970703124,395.03890673828124 c-1.855,-3.6406300000000003 -3.57911,-7.40137 -5.124,-11.17822 l1.85059,-0.7578200000000002 c1.5249000000000001,3.72608 3.22558,7.43653 5.05566,11.02784 zM137.62844970703125,372.29621673828126 c-1.227,-3.8935500000000003 -2.30566,-7.88769 -3.20654,-11.8706 l1.95117,-0.4414100000000001 c0.8881900000000001,3.92969 1.95215,7.86963 3.1626,11.71045 zm-5.418,-23.96582 c-0.5669000000000001,-4.03613 -0.97315,-8.15185 -1.2085,-12.23388 l1.99707,-0.11524000000000002 c0.23145000000000002,4.02783 0.6328100000000001,8.08887 1.1918900000000001,12.0708 zm0.58252,-24.48047 l-1.999,-0.046870000000000016 c0.09619000000000004,-4.08789 0.3618200000000001,-8.21485 0.78906,-12.26563 l1.9892599999999998,0.21000000000000002 C133.15038970703125,315.74445673828126 132.88817970703124,319.81623673828125 132.79296970703126,323.8499067382813 zm2.54736,-24.10009 l-1.9648500000000002,-0.37305000000000005 c0.7617200000000002,-4.01074 1.7006900000000003,-8.03858 2.791,-11.97168 l1.92773,0.53418 C137.01805970703126,291.81965673828125 136.09178970703124,295.79328673828127 135.34032970703126,299.74983673828126 zm6.47754,-23.35254 l-1.8760000000000001,-0.6923900000000002 c1.41406,-3.8310500000000003 3.00733,-7.65136 4.73535,-11.35449 l1.8125,0.8457000000000001 C144.78465970703124,268.84944673828124 143.21288970703125,272.61799673828125 141.81786970703126,276.3972967382812 zm273.90429,-6.18213 c-1.5634700000000001,-3.70752 -3.30322,-7.39844 -5.17138,-10.97071 l1.77246,-0.9267500000000001 c1.89355,3.62109 3.65723,7.3623 5.2417,11.12011 zM152.07128970703124,254.42072673828125 l-1.7363300000000002,-0.99218 c2.02539,-3.543 4.2251,-7.04737 6.53808,-10.41651 L158.52144970703125,244.14390673828126 C156.23973970703125,247.46809673828125 154.06932970703124,250.92561673828124 152.07128970703124,254.42072673828125 zm252.41992,-5.683590000000001 c-2.15381,-3.40185 -4.47657,-6.75732 -6.90381,-9.97266 l1.59668,-1.20507 c2.46,3.25927 4.814,6.66015 6.99658,10.10791 zM165.79444970703125,234.43244673828127 l-1.55078,-1.26367 c2.58008,-3.16553 5.32226,-6.26221 8.15185,-9.20508 l1.44141,1.38575 C171.04544970703125,228.25324673828123 168.33934970703126,231.30890673828122 165.79444970703125,234.43244673828127 zm224.09473,-5.042 c-2.68262,-3.00684 -5.52246,-5.93848 -8.44092,-8.71387 l1.3784200000000002,-1.44922 c2.95752,2.813 5.83593,5.78418 8.55468,8.83106 zM182.59520970703124,216.95590673828127 l-1.32324,-1.499 c3.06006,-2.7011700000000003 6.27051,-5.30908 9.542,-7.751 l1.19629,1.60254 C188.78221970703126,211.71809673828125 185.61473970703125,214.29084673828123 182.59520970703124,216.95590673828127 zm189.72754,-4.273 c-3.13721,-2.52832 -6.418,-4.95752 -9.75049,-7.21924 l1.123,-1.6552700000000002 c3.37793,2.293 6.702640000000001,4.75439 9.88232,7.31689 zM202.01805970703126,202.46028673828124 l-1.06054,-1.6953200000000002 c3.46289,-2.166 7.05566,-4.2124 10.6792,-6.08252 l0.917,1.77735 C208.97899970703125,198.30451673828122 205.43456970703124,200.32356673828127 202.01805970703126,202.46028673828124 zm150.24366,-3.39063 c-3.51368,-1.98291 -7.14844,-3.84082 -10.80323,-5.522 l0.8359400000000001,-1.81739 c3.70459,1.70459 7.38867,3.5879000000000003 10.9502,5.59717 zM223.54686970703125,191.34990673828128 l-0.76758,-1.84668 c3.769,-1.56543 7.64844,-2.9917 11.53077,-4.23877 l0.6113200000000001,1.9043 C231.09178970703124,188.39875673828124 227.26463970703122,189.80549673828125 223.54686970703125,191.34990673828128 zm106.68848,-2.41259 c-3.78516,-1.374 -7.67676,-2.60645 -11.56641,-3.6626000000000003 l0.52442,-1.9296900000000001 c3.94238,1.07031 7.8872,2.31934 11.72461,3.7124 zm-83.62354,-4.99463 l-0.45117,-1.94825 c3.97168,-0.9208900000000001 8.03613,-1.6870000000000003 12.07959,-2.27783 l0.28906000000000004,1.979 C254.54003970703127,182.27863673828125 250.53075970703122,183.03449673828123 246.61180970703123,183.94270673828123 zm60.22705,-1.3584 c-3.95312,-0.7285200000000001 -7.99365,-1.30176 -12.00927,-1.70313 l0.19922000000000004,-1.99023 c4.06982,0.40723 8.16552,0.9877900000000001 12.17236,1.72656 zm-36.24755,-2.146 l-0.126,-1.9960900000000001 c4.06787,-0.25684 8.21533,-0.34815000000000007 12.291,-0.27442000000000005 l-0.03613000000000001,2 C278.69530970703124,180.09406673828124 274.60594970703124,180.18537673828126 270.59130970703126,180.43830673828126 z" fill="#3f3d56" id="svg_3"/><path d="M421.74559970703126,287.42414673828125 c-0.5356400000000001,-1.90332 -1.11767,-3.82178 -1.73047,-5.70215 l1.90137,-0.62011 c0.6210900000000001,1.90625 1.21143,3.85107 1.75391,5.78027 z" fill="#3f3d56" id="svg_4"/><path d="M409.55028970703125,175.42317673828126 h-2 c0,-2.00147 0.035160000000000004,-4.03223 0.10500000000000001,-6.03516 l1.999,0.06934000000000001 C409.5854497070313,171.43781673828124 409.55028970703125,173.44465673828125 409.55028970703125,175.42317673828126 z" fill="#3f3d56" id="svg_5"/><path d="M410.50194970703126,157.43098673828126 l-1.9892599999999998,-0.21192000000000003 c0.42871000000000004,-4.02783 1.0083,-8.08837 1.72315,-12.06884 l1.96875,0.35351000000000005 C411.49803970703124,149.43733673828126 410.92528970703125,153.45051673828124 410.50194970703126,157.43098673828126 zm4.25781,-23.70117 l-1.9375,-0.49414 c1.001,-3.9253 2.15821,-7.8608400000000005 3.43848,-11.69776 l1.8974600000000001,0.6328100000000001 C416.89256970703127,125.96272673828125 415.7495097070312,129.85139673828124 414.75975970703126,133.72981673828124 zM733.7226497070312,112.62922673828126 c-1.49511,-3.71143 -3.14453,-7.41455 -4.90234,-11.00537 l1.7968700000000002,-0.8789100000000001 c1.77832,3.6337900000000003 3.44727,7.38086 4.96094,11.13721 zm-311.3374,-1.75293 l-1.84668,-0.7685500000000001 c1.55518,-3.73731 3.26758,-7.46827 5.09082,-11.08936 l1.78613,0.89941 C425.61424970703126,103.49641673828125 423.92186970703125,107.18290673828125 422.3852497070313,110.87629673828124 zM723.1386697070312,90.99790673828124 c-2.01074,-3.45605 -4.17285,-6.88525 -6.42774,-10.19189 l1.6523500000000002,-1.127 c2.28222,3.34619 4.46972,6.81591 6.5039,10.313 zm-289.918,-1.6470000000000002 L431.5034497070312,88.32551673828124 c2.07276,-3.47266 4.30176,-6.91895 6.6240000000000006,-10.24268 l1.63965,1.14551 C437.4716797070312,82.51301673828124 435.26903970703125,85.91877673828125 433.22069970703126,89.35090673828125 zm276.34961,-18.25195 c-2.48731,-3.13916 -5.11621,-6.22559 -7.81445,-9.17383 l1.47461,-1.35059 c2.73046,2.9834 5.3916,6.106 7.9082,9.28223 zM447.01952970703127,69.60090673828125 l-1.5537100000000001,-1.25977 c2.55127,-3.14648 5.24707,-6.23925 8.01318,-9.19238 l1.46,1.36719 C452.20506970703127,63.434906738281256 449.54051970703125,66.49153673828124 447.01952970703127,69.60090673828125 zm246.28808,-16.27 c-2.90722,-2.75293 -5.94824,-5.43457 -9.04,-7.97119 l1.2675800000000002,-1.5459 c3.12891,2.56592 6.20606,5.27979 9.14746,8.06494 zm-229.82324,-1.31152 l-1.3593700000000002,-1.46778 c2.96972,-2.74951 6.07666,-5.42773 9.23535,-7.95947 l1.251,1.56055 C469.4897397070313,46.65510673828126 466.41893970703126,49.30158673828126 463.48436970703125,52.01936673828126 zm211.19824,-13.96631 c-3.26757,-2.3115200000000002 -6.65918,-4.5332 -10.082,-6.60352 l1.03516,-1.71093 c3.46289,2.09472 6.89551,4.34277 10.20117,6.68164 zm-192.40869,-1.0957000000000001 l-1.13672,-1.64551 c3.32959,-2.29883 6.78516,-4.50635 10.27149,-6.562 l1.01562,1.7226500000000002 C488.9789997070312,32.50422673828125 485.56395970703124,34.68590673828126 482.27391970703127,36.95735673828125 zm171.79737,-11.37159 c-3.56543,-1.82129 -7.24024,-3.53418 -10.92383,-5.09228 l0.77929,-1.8418 c3.7275400000000003,1.57617 7.44629,3.31006 11.05469,5.15283 zm-151.05957,-0.8530000000000001 l-0.8896500000000002,-1.791 c3.623,-1.7988300000000002 7.35742,-3.48877 11.10009,-5.02246 l0.7587900000000002,1.85059 C510.28221970703123,21.285476738281247 506.59178970703124,22.95539673828125 503.01171970703126,24.73274673828125 zm128.873,-8.53077 c-3.7832,-1.2880800000000001 -7.667,-2.45507 -11.543,-3.46826 l0.50586,-1.93457 c3.92285,1.0249 7.85352,2.20606 11.68164,3.50928 zm-106.60937,-0.5917900000000001 l-0.6230000000000001,-1.90039 c3.84375,-1.25977 7.78516,-2.396 11.71533,-3.3770000000000002 l0.4843800000000001,1.94043 C532.9682597070313,13.24250673828125 529.0732397070312,14.365066738281257 525.2753897070312,15.610186738281243 zm83.30566,-5.501 c-3.93262,-0.7300000000000001 -7.94238,-1.32617 -11.918,-1.77246 l0.22266000000000002,-1.9872999999999998 c4.02344,0.45166 8.08105,1.05468 12.06055,1.7930000000000001 zm-59.94189,-0.32910000000000006 l-0.3427800000000001,-1.9707 c3.98438,-0.6938500000000002 8.04737,-1.252 12.07764,-1.6596700000000002 l0.20117,1.99023 C556.5927697070313,8.542316738281244 552.5766597070312,9.094066738281256 548.6391597070312,9.780106738281248 zm36.00927,-2.36035 c-4.00488,-0.16260000000000002 -8.07617,-0.18408000000000002 -12.05078,-0.06543000000000002 l-0.06054000000000001,-1.999 c4.02246,-0.12011000000000001 8.14062,-0.09912000000000004 12.19336,0.06641000000000001 z" fill="#3f3d56" id="svg_6"/><path d="M739.5732397070312,129.79084673828126 c-0.53516,-1.90332 -1.11328,-3.82471 -1.7168,-5.71191 l1.9043,-0.60938 c0.61133,1.90918 1.19629,3.85352 1.73828,5.7793 z" fill="#3f3d56" id="svg_7"/><ellipse cx="155.07017517089844" cy="433.150390625" rx="33.31243133544922" ry="2.498430013656616" fill="#f063b8" id="svg_8"/><ellipse cx="420.7368469238281" cy="312.3927917480469" rx="33.31243133544922" ry="2.498430013656616" fill="#f063b8" id="svg_9"/><ellipse cx="748.8643188476562" cy="186.63836669921875" rx="33.31243133544922" ry="2.498430013656616" fill="#f063b8" id="svg_10"/><rect x="596.7246704101562" y="831.6788330078125" width="141.66200256347656" height="1.9997899532318115" transform="rotate(-45 -51.507999420165994,508.34255981445307) " fill="#3f3d56" id="svg_11"/><rect x="438.22607421875" y="291.4051208496094" width="168.22802734375" height="2" fill="#3f3d56" id="svg_12"/><rect x="93.32505798339844" y="761.55078125" width="133.0648651123047" height="1.9997899532318115" transform="rotate(-45 -234.10191345214844,314.6502685546875) " fill="#3f3d56" id="svg_13"/><rect x="172.55908203125" y="412.1629333496094" width="112.4296875" height="2" fill="#3f3d56" id="svg_14"/><rect x="-364.767578125" y="733.8265380859375" width="157.9993438720703" height="1.9997899532318115" transform="rotate(-45 -405.386962890625,158.32789611816403) " fill="#3f3d56" id="svg_15"/><path d="M155.07030970703124,431.65217673828124 A18.48926,18.48926 0 1 1 173.55907970703126,413.16290673828127 A18.51013,18.51013 0 0 1 155.07030970703124,431.65217673828124 zm0,-34.97852 A16.48926,16.48926 0 1 0 171.55907970703126,413.16290673828127 A16.50815,16.50815 0 0 0 155.07030970703124,396.67365673828124 z" fill="#3f3d56" id="svg_16"/><path d="M302.47753970703127,431.65217673828124 A18.48926,18.48926 0 1 1 320.96678970703124,413.16290673828127 A18.50971,18.50971 0 0 1 302.47753970703127,431.65217673828124 zm0,-34.97852 A16.48926,16.48926 0 1 0 318.96678970703124,413.16290673828127 A16.508,16.508 0 0 0 302.47753970703127,396.67365673828124 z" fill="#3f3d56" id="svg_17"/><path d="M420.7368097070312,310.89436673828124 a18.489,18.489 0 1 1 18.48926,-18.48926 A18.51,18.51 0 0 1 420.7368097070312,310.89436673828124 zm0,-34.978 a16.489,16.489 0 1 0 16.48926,16.48877 A16.50763,16.50763 0 0 0 420.7368097070312,275.91633673828125 z" fill="#3f3d56" id="svg_18"/><path d="M623.9423797070313,310.89436673828124 a18.489,18.489 0 1 1 18.48926,-18.48926 A18.50992,18.50992 0 0 1 623.9423797070313,310.89436673828124 zm0,-34.978 a16.489,16.489 0 1 0 16.48926,16.48877 A16.5072,16.5072 0 0 0 623.9423797070313,275.91633673828125 z" fill="#3f3d56" id="svg_19"/><path d="M748.8642497070313,185.13996673828126 a18.489,18.489 0 1 1 18.48926,-18.48926 A18.51012,18.51012 0 0 1 748.8642497070313,185.13996673828126 zm0,-34.978 a16.489,16.489 0 1 0 16.48926,16.48876 A16.508,16.508 0 0 0 748.8642497070313,150.16190673828126 z" fill="#3f3d56" id="svg_20"/><path d="M18.48924970703125,568.2332267382812 a18.48926,18.48926 0 1 1 18.48877,-18.48925 A18.51012,18.51012 0 0 1 18.48924970703125,568.2332267382812 zm0,-34.97851 a16.48926,16.48926 0 1 0 16.48877,16.48926 A16.50814,16.50814 0 0 0 18.48924970703125,533.2547167382812 z" fill="#3f3d56" id="svg_21"/><path d="M155.07016970703125,304.06468673828124 a33.31242,33.31242 0 0 0 -33.31243,33.31244 c0,18.39793 33.31243,79.117 33.31243,79.117 s33.31244,-60.7191 33.31244,-79.117 A33.31243,33.31243 0 0 0 155.07016970703125,304.06468673828124 zm0,50.80146 a17.489,17.489 0 1 1 17.489,-17.489 A17.489,17.489 0 0 1 155.07016970703125,354.86614673828126 z" fill="#f063b8" id="svg_22"/><path d="M420.73683970703127,179.14305673828125 A33.31243,33.31243 0 0 0 387.4244497070313,212.45549673828123 c0,18.39793 33.31244,79.117 33.31244,79.117 s33.31243,-60.7191 33.31243,-79.117 A33.31242,33.31242 0 0 0 420.73683970703127,179.14305673828125 zm0,50.80146 a17.489,17.489 0 1 1 17.489,-17.489 A17.489,17.489 0 0 1 420.73683970703127,229.94451673828127 z" fill="#f063b8" id="svg_23"/><rect x="621.1767578125" y="707.3406372070312" width="453.5351257324219" height="2.443190097808838" fill="#2f2e41" id="svg_24"/><path d="M995.4329097070313,72.43181673828124 c-7.05081,20.87569 -17.86231,39.89658 -39.89659,39.89658 s-38.65507,-17.89732 -39.89658,-39.89658 c-1.5864,-28.11069 17.354,-40.013 39.89658,-39.89659 C982.1667097070313,32.67277673828124 1003.8005397070312,47.65743673828126 995.4329097070313,72.43181673828124 z" fill="#2f2e41" id="svg_25"/><rect x="915.6397705078125" y="69.28208923339844" width="78.74327087402344" height="99.74147033691406" fill="#2f2e41" id="svg_26"/><path d="M996.6951697070313,143.58990673828126 h6.69761 s16.37193,20.837 8.93014,49.11579 s-1.48835,33.488 -1.48835,33.488 s9.68812,30.62354 -0.73038,76.76262 s9.66052,58.67788 9.66052,58.67788 l-18.60446,-37.20893 l-10.4185,-98.23157 z" fill="#575a89" id="svg_27"/><path d="M996.6951697070313,146.03790673828124 h6.69761 s16.37193,20.837 8.93014,49.11579 s-1.48835,33.488 -1.48835,33.488 s9.68812,30.62354 -0.73038,76.76262 s9.66052,58.67788 9.66052,58.67788 l-18.60446,-37.20893 l-10.4185,-98.23157 z" opacity="0.1" id="svg_28"/><path d="M973.2535497070312,107.49725673828124 s-5.95343,23.81371 -2.9767200000000003,23.81371 s13.39522,12.651 13.39522,12.651 l6.69761,24.55789 l-5.20925,17.86029 l-17.86029,-3.7208900000000003 l-22.32536,-24.5579 l-6.69761,-6.6976 l-5.95343,-21.58118 s7.44179,-8.93015 2.23254,-16.37193 S973.2535497070312,107.49725673828124 973.2535497070312,107.49725673828124 z" fill="#9f616a" id="svg_29" class="" fill-opacity="1"/><path d="M968.8091184020996,121.94169757995604 s-5.95343,23.81371 -2.9767200000000003,23.81371 s13.39522,12.651 13.39522,12.651 l6.69761,24.55789 l-5.20925,17.86029 l-17.86029,-3.7208900000000007 l-22.32536,-24.5579 l-6.69761,-6.6976 l-5.95343,-21.58118 s7.44179,-8.93015 2.23254,-16.37193 S968.8091184020996,121.94169757995604 968.8091184020996,121.94169757995604 z" opacity="0.1" id="svg_30" class="" transform="translate(-1.111111044883728,2.222222089767456) "/><path d="M793.1623297070313,173.72914673828126 L776.7904497070313,146.93871673828124 s-17.67265,-39.10242 -30.32369,-24.963 s19.161,42.82332 19.161,42.82332 l16.37193,21.58118 z" fill="#9f616a" id="svg_31" class="" fill-opacity="1"/><path d="M1010.4624497070313,406.65705673828126 L998.5556197070312,493.7259067382812 s1.4883600000000001,6.69761 -13.39521,31.25551 s-55.06922,78.13875 -55.06922,78.13875 l-11.90686,-22.32536 s14.13939,-70.697 38.69729,-85.58054 l-2.9767200000000003,-107.16172 z" fill="#9f616a" id="svg_32" class="" fill-opacity="1"/><path d="M1010.4624497070313,405.5459456933975 L998.5556197070312,492.61479569339747 s1.4883600000000001,6.69761 -13.39521,31.25551 s-55.06922,78.13875 -55.06922,78.13875 l-11.90686,-22.32536 s14.13939,-70.697 38.69729,-85.58054 l-2.9767200000000003,-107.16172 z" opacity="0.1" id="svg_33" class="" transform="translate(0,-10) "/><path d="M918.1843297070312,571.8647067382813 l16.37193,31.2555 s-13.39521,37.95311 -8.186,41.674 s11.90685,37.20893 -2.23254,33.488 s-25.30207,-18.60447 -25.30207,-20.837 s8.186,-33.488 3.7208900000000003,-40.92983 s-7.44179,-9.67432 -7.44179,-9.67432 l-11.16267,18.60447 l-3.7209000000000003,-2.23254 l18.60447,-31.2555 s2.23253,-5.95343 11.16268,-9.67432 z" fill="#2f2e41" id="svg_34"/><path d="M918.1843297070312,571.8647067382813 l16.37193,31.2555 s-13.39521,37.95311 -8.186,41.674 s11.90685,37.20893 -2.23254,33.488 s-25.30207,-18.60447 -25.30207,-20.837 s8.186,-33.488 3.7208900000000003,-40.92983 s-7.44179,-9.67432 -7.44179,-9.67432 l-11.16267,18.60447 l-3.7209000000000003,-2.23254 l18.60447,-31.2555 s2.23253,-5.95343 11.16268,-9.67432 z" opacity="0.1" id="svg_35"/><path d="M954.0785497070312,394.3037767382813 s5.77978,82.30607 -6.87125,103.88725 V605.3527467382812 l-17.11611,2.23253 s-34.56547,-56.734 -21.91444,-112.54736 s-13.062,-106.98533 -13.062,-106.98533 z" fill="#9f616a" id="svg_36" class="" fill-opacity="1"/><circle cx="949.8119506835938" cy="94.47412872314453" r="31.25550079345703" fill="#9f616a" id="svg_37" class="" fill-opacity="1"/><path d="M981.4395097070312,176.70590673828127 l-31.2555,-39.44147 l-17.86029,-11.90686 L924.8819397070313,135.03190673828124 l-20.837,5.95343 s-13.39522,2.9767099999999997 -27.53461,19.34864 s-39.44147,26.04625 -39.44147,26.04625 l-20.837,-3.7208900000000003 s-24.55789,-11.16268 -24.55789,-14.1394 s-21.58118,20.09283 -16.37193,29.023 s16.37193,20.09282 22.32536,26.04625 s8.186,23.06954 44.650710000000004,17.86029 s49.86,-23.06954 49.86,-23.06954 s6.69761,34.23222 26.04625,40.92982 s82.60383,11.16268 82.60383,11.16268 l13.39521,-44.650710000000004 s14.88357,-19.34865 -5.20925,-47.62743 c0,0 -0.38574,-15.81551 -2.54584,-26.33966 c-0.8401900000000001,-4.09344 -1.94881,-7.38636 -3.40759,-8.63674 c-5.20925,-4.46507 -32.74386,-11.90686 -32.74386,-11.90686 s4.46508,14.88358 6.69761,15.62775 S984.4162297070312,172.98497673828126 981.4395097070312,176.70590673828127 z" fill="#575a89" id="svg_38"/><path d="M881.3474497070313,398.8431767382813 c37.47673,-2.60462 59.2961,3.53485 69.03,8.21572 a24.67563,24.67563 0 0 1 5.07534,3.08091 c0.7143900000000001,0.6027800000000001 1.05668,1.07162 1.05668,1.3544100000000001 c0,2.23253 51.34832,6.69761 69.95279,2.23253 s-12.651,-100.46411 -20.837,-108.65007 s-3.773,-38.1466 -3.773,-38.1466 s-16.31978,-3.5274 -20.78486,-2.039 s-27.5346,-2.23253 -35.72057,-6.6976 s-18.60446,-1.4883600000000001 -25.30207,-2.9767200000000003 c-2.99161,-0.6623300000000001 -4.50232,0.45394 -5.254,1.89765 a12.86762,12.86762 0 0 1 -5.09006,5.14225 c-15.7989,9.10134 -28.47973,72.02908 -38.0276,106.81943 C861.2546697070312,407.02914673828127 881.3474497070313,398.8431767382813 881.3474497070313,398.8431767382813 z" fill="#2f2e41" id="svg_39"/><path d="M950.1840097070312,598.6551367382813 l2.9767200000000003,16.37193 S968.7884497070313,637.3524267382812 964.3234497070313,655.9569067382813 c0,0 3.7209000000000003,24.55789 17.11611,31.2555 s2.23254,22.32536 -10.4185,21.58118 s-24.55789,0.7441800000000001 -26.04625,-2.9767099999999997 s-10.4185,-40.18565 -10.4185,-40.18565 l-2.44319,42.67115 l-7.44178,0.7441800000000001 l2.44318,-49.36876 s-5.95342,-11.16268 2.23254,-29.76714 l-2.066,-28.5575 S947.9514497070312,606.0969067382813 950.1840097070312,598.6551367382813 z" fill="#2f2e41" id="svg_40"/><path d="M950.3775097070312,407.0589067382812 a24.67563,24.67563 0 0 1 5.07534,3.08091 c0.39426000000000005,-7.0325 2.6714900000000004,-49.56232 -0.05959000000000001,-48.87765 z" opacity="0.1" id="svg_41"/><path d="M936.8729197070312,51.43360673828124 s-0.34615000000000007,-1.9268900000000002 -13.88381,3.14973 S901.3365497070313,97.12322673828126 908.1053797070313,119.12190673828124 c2.72781,8.86539 0.50878,15.25736 -3.113,19.729680000000002 c-13.59109,16.78288 -8.24084,41.9903 11.55562,50.62064 q0.8381700000000001,0.36540000000000006 1.71061,0.7224200000000001 l8.461,5.07663 s-10.786,-14.19212 -5.38828,-32.34645 a93.07919,93.07919 0 0 0 1.67965,-47.65026 c-0.61926,-2.65858 -1.3227,-5.39906 -2.12175,-8.19575 C914.1204497070313,83.38790673828126 917.4125197070313,86.12390673828125 941.1034497070312,62.43295673828126 c0,0 13.53766,10.15325 25.38312,15.22988 s21.99871,10.15325 13.53767,27.07533 s-28.76754,32.152 -15.22988,54.15066 s15.22988,13.53767 13.53767,21.99871 h0 l-1.6922100000000002,8.461 l10.15325,-10.15325 l-6.76883,13.53767 s21.9987,0 28.76754,-16.92209 l3.38441,3.38442 s13.53767,-23.69091 -11.84545,-45.68962 c0,0 -8.461,-5.07663 3.38441,-21.99871 s2.748,-53.30456 -12.48187,-60.07339 S936.8729197070312,51.43360673828124 936.8729197070312,51.43360673828124 z" fill="#2f2e41" id="svg_42" class=""/><circle cx="955.5363159179688" cy="25.18585968017578" r="15.748649597167969" fill="#2f2e41" id="svg_43"/><path d="M936.6379397070313,16.786566738281252 a15.74931,15.74931 0 0 1 14.17379,-15.66912 c-0.5181,-0.051460000000000006 -1.04318,-0.07953000000000002 -1.5748700000000002,-0.07953000000000002 a15.74865,15.74865 0 0 0 0,31.49731 c0.5316900000000001,0 1.05677,-0.028070000000000005 1.5748700000000002,-0.07953000000000002 A15.74936,15.74936 0 0 1 936.6379397070313,16.786566738281252 z" fill="#2f2e41" id="svg_44"/><path d="M748.8643197070312,59.21829673828125 a33.31243,33.31243 0 0 0 -33.31244,33.31243 c0,18.39793 33.31244,79.117 33.31244,79.117 s33.31243,-60.7191 33.31243,-79.117 A33.31242,33.31242 0 0 0 748.8643197070312,59.21829673828125 zm0,50.80146 a17.489,17.489 0 1 1 17.489,-17.489 A17.489,17.489 0 0 1 748.8643197070312,110.01975673828125 z" fill="#f063b8" id="svg_45"/><circle cx="480.3202209472656" cy="661.0232543945312" r="18.02528953552246" fill="#f1f1f1" id="svg_46"/><circle cx="592.4668579101562" cy="584.778076171875" r="18.02528953552246" fill="#f1f1f1" id="svg_47"/><circle cx="453.7789611816406" cy="513.7841796875" r="18.02528953552246" fill="#f1f1f1" id="svg_48"/></g></svg>