<svg xmlns="http://www.w3.org/2000/svg" data-name="Layer 1" width="757.96407" height="743.73221"><rect id="backgroundrect" width="100%" height="100%" x="0" y="0" fill="none" stroke="none"/><g class="currentLayer" style=""><title>Layer 1</title><path d="M91.45321514648435,0.0000017553710875972683 a32.036,32.036 0 0 0 -32,32 V710.4277417553711 a32.03635,32.03635 0 0 0 32,32 H388.45272514648434 a32.03667,32.03667 0 0 0 32,-32 V32.00000175537109 a32.03635,32.03635 0 0 0 -32,-32 z" fill="#e6e6e6" id="svg_1"/><path d="M400.6580751464844,156.9818817553711 v-54.44 a125.24705,125.24705 0 0 1 -80.85876,-60.18884 l-0.0012900000000000003,0.0010000000000000002 a23.78924,23.78924 0 0 1 -14.22,4.68 H262.3495451464844 A178.54913,178.54913 0 0 0 400.6580751464844,156.9818817553711 z" fill="#fff" id="svg_2"/><path d="M400.6580751464844,99.42188175537109 V47.12411175537109 a29.12112,29.12112 0 0 0 -29.13,-29.13 h-41.97 v5.05 a23.91657,23.91657 0 0 1 -7.3988000000000005,17.32885 A122.29834,122.29834 0 0 0 400.6580751464844,99.42188175537109 z" fill="#fff" id="svg_3"/><path d="M198.7693451464844,47.0341117553711 H171.73802514648435 a23.987,23.987 0 0 1 -23.98,-23.99 v-5.05 h-39.38 a29.12752,29.12752 0 0 0 -29.13,29.13 v648.2 a29.07915,29.07915 0 0 0 29.13,29.11 h263.15 a28.36184,28.36184 0 0 0 3.59,-0.22000000000000003 a29.14642,29.14642 0 0 0 25.54,-28.89 V218.15192175537112 C304.94902514648436,207.0617817553711 225.19994514648437,138.7728317553711 198.7693451464844,47.0341117553711 z" fill="#fff" id="svg_4"/><path d="M259.0695751464844,47.0341117553711 H201.92931514648438 c26.3006,90.03875 104.67969,157.02771 198.72876,168.06787 V160.0818617553711 A181.66783,181.66783 0 0 1 259.0695751464844,47.0341117553711 z" fill="#fff" id="svg_5"/><path d="M380.61190514648433,532.781251755371 H110.61141514648438 a5.00589,5.00589 0 0 1 -5,-5 V460.8056717553711 a5.00589,5.00589 0 0 1 5,-5 H380.61190514648433 a5.00588,5.00588 0 0 1 5,5 v66.97558 A5.00588,5.00588 0 0 1 380.61190514648433,532.781251755371 zM110.61141514648438,457.8056717553711 a3.00328,3.00328 0 0 0 -3,3 v66.97558 a3.00328,3.00328 0 0 0 3,3 H380.61190514648433 a3.00328,3.00328 0 0 0 3,-3 V460.8056717553711 a3.00328,3.00328 0 0 0 -3,-3 z" fill="#e6e6e6" id="svg_6"/><circle cx="145.61143493652344" cy="494.293212890625" r="21" fill="#3f3d56" id="svg_7"/><path d="M194.11142514648435,480.2932017553711 a3.5,3.5 0 1 0 0,7 h165 a3.5,3.5 0 0 0 0,-7 z" fill="#e6e6e6" id="svg_8"/><path d="M194.11142514648435,501.2932017553711 a3.5,3.5 0 1 0 0,7 h165 a3.5,3.5 0 0 0 0,-7 z" fill="#e6e6e6" id="svg_9"/><path d="M380.61190514648433,644.781251755371 H110.61141514648438 a5.00589,5.00589 0 0 1 -5,-5 V572.8056717553711 a5.00589,5.00589 0 0 1 5,-5 H380.61190514648433 a5.00588,5.00588 0 0 1 5,5 v66.97558 A5.00588,5.00588 0 0 1 380.61190514648433,644.781251755371 zM110.61141514648438,569.8056717553711 a3.00328,3.00328 0 0 0 -3,3 v66.97558 a3.00328,3.00328 0 0 0 3,3 H380.61190514648433 a3.00328,3.00328 0 0 0 3,-3 V572.8056717553711 a3.00328,3.00328 0 0 0 -3,-3 z" fill="#e6e6e6" id="svg_10"/><circle cx="145.61143493652344" cy="606.293212890625" r="21" fill="#3f3d56" id="svg_11"/><path d="M194.11142514648435,592.2932017553711 a3.5,3.5 0 1 0 0,7 h165 a3.5,3.5 0 0 0 0,-7 z" fill="#e6e6e6" id="svg_12"/><path d="M194.11142514648435,613.2932017553711 a3.5,3.5 0 1 0 0,7 h165 a3.5,3.5 0 0 0 0,-7 z" fill="#e6e6e6" id="svg_13"/><path d="M239.92929514648438,393.7959017553711 a94.95976,94.95976 0 0 1 -95,-94.99951 c0,-0.19873000000000005 0.0004800000000000002,-0.4082 0.011710000000000003,-0.6069300000000001 c0.29100000000000004,-52.02539 42.90332,-94.39307 94.98829,-94.39307 a95.0149,95.0149 0 0 1 42.185,180.145 A94.10642,94.10642 0 0 1 239.92929514648438,393.7959017553711 zm0,-187.99951 a93.19835,93.19835 0 0 0 -92.98975,92.45557 c-0.010740000000000003,0.21240000000000003 -0.010250000000000002,0.3828100000000001 -0.010250000000000002,0.54443 a93.0003,93.0003 0 0 0 185.15918,12.50684 a92.98055,92.98055 0 0 0 -92.15918,-105.50684 z" fill="#e6e6e6" id="svg_14"/><path d="M282.95192514648437,303.39539175537107 l-65.02243,-37.54072 a2,2 0 0 0 -3,1.73205 v75.08145 a2,2 0 0 0 3,1.73205 l65.02243,-37.54072 a2,2 0 0 0 0,-3.46411 l-65.02243,-37.54072 a2,2 0 0 0 -3,1.73205 v75.08145 a2,2 0 0 0 3,1.73205 l65.02243,-37.54072 A2,2 0 0 0 282.95192514648437,303.39539175537107 z" fill="#f063b8" id="svg_15"/><path d="M636.4294951464843,290.2962217553711 l-44,5 c0.6006400000000002,-13.51522 -0.54181,-26.12177 -5,-37 l36,-13 C620.2035351464843,258.7546117553711 626.2615851464843,274.1063217553711 636.4294951464843,290.2962217553711 z" fill="#9f616a" id="svg_16" class="" fill-opacity="1"/><path d="M641.7356551464844,440.3811117553711 L655.9880251464843,465.82376175537104 a13.21993,13.21993 0 0 1 -5.24387,18.08866 l0,0 a13.21993,13.21993 0 0 1 -19.45,-10.37339 l-2.31763,-24.314610000000002 l-7.89592,-92.80977 L607.6120251464844,295.36880175537107 l27.96382,-7.93882 l13.01631,68.6482 z" fill="#9f616a" id="svg_17" class="" fill-opacity="1"/><path d="M665.4294951464843,711.2962217553711 l-18,-1 l-40,-178 l-85,179 l-18,-1 l52,-276 l1,-50 l65,-4 c24.29339,26.71661 38.05181,54.34646 40,83 z" fill="#2f2e41" id="svg_18"/><path d="M520.9696151464843,742.549851755371 c-3.40717,1.5550000000000002 -6.68282,-11.41653 -9.1351,-8.21921 c-8.23547,10.73767 -27.40979,7.3694500000000005 -27.32391,6.12915 a5.02517,5.02517 0 0 1 -3.16746,-6.5486 h0 a5.02523,5.02523 0 0 1 3.48647,-3.1107 L493.3790251464844,728.6631117553711 l13.42383,-23.60744 l13.70384,-0.92578 h0 A32.74007,32.74007 0 0 1 526.5620251464844,732.0597417553711 C525.3184651464844,737.1354417553711 523.3986551464844,741.4412517553711 520.9696151464843,742.549851755371 z" fill="#2f2e41" id="svg_19"/><path d="M663.0501051464844,742.549851755371 c-3.40717,1.5550000000000002 -6.68214,-11.416 -9.13514,-8.21921 c-9.48785,12.36463 -27.96259,8.097 -27.32391,6.12915 a5.02519,5.02519 0 0 1 -3.16742,-6.5486 h0 a5.02523,5.02523 0 0 1 3.48647,-3.1107 l8.54944,-2.13736 l13.42383,-23.60744 L663.5130251464843,703.2041117553711 l0.36951000000000006,0.60428 a37.72071,37.72071 0 0 1 4.04224,30.84407 C666.7081051464844,738.550751755371 665.0520251464844,741.636171755371 663.0501051464844,742.549851755371 z" fill="#2f2e41" id="svg_20"/><circle cx="596.4295043945312" cy="236.29620361328125" r="31" fill="#9f616a" id="svg_21" class="" fill-opacity="1"/><path d="M624.4294951464843,385.2962217553711 l-67,4 l-6,-38 c-6.21119,-17.0817 1.5518800000000001,-32.77381 14,-48 l26,-29 l36,-1 h0 a26.8881,26.8881 0 0 1 18.29557,22.24769 a106.4294,106.4294 0 0 1 -11.1317,61.82579 z" fill="#f063b8" id="svg_22"/><path d="M551.4294951464843,470.2962217553711 l4.7943,28.765810000000002 A13.21993,13.21993 0 0 1 545.1641551464844,514.3061117553711 h0 a13.21992,13.21992 0 0 1 -14.78791,-16.347080000000002 l6.05328,-23.66282 l24,-90 l8,-62 l29,2 l-11,69 z" fill="#9f616a" id="svg_23" class="" fill-opacity="1"/><path d="M633.6052151464844,355.7962217553711 H632.8880251464843 c-13.52208,-11.71686 -25.273,-24.85178 -15.7832,-41.29589 C609.0565251464843,294.07287175537107 600.0840251464844,272.8596517553711 600.6262251464843,259.7361117553711 c0.40106,-9.70663 -2.42494,-19.37749 -8.74278,-26.75749 c-8.5523,-9.99012 -10.45577,-14.45175 -26.07547,-10.67376 l0,0 a29.59715,29.59715 0 0 1 30.66984,-29.98863 l9.75866,0.35486000000000006 c7.46517,0.27146000000000003 31.32334,3.32315 36.44564,8.24943 a23.76593,23.76593 0 0 1 6.80357,19.98349 c-0.95743,8.14526 1.6123,15.33707 8.47786,21.36764 c13.14421,13.592 18.5655,27.6952 11.11317,42.65044 c-5.62517,15.83232 -5.35648,28.8641 9.15329,35.129 h0 v0 C682.9423051464844,338.1361117553711 652.2941451464844,355.7962217553711 633.6052151464844,355.7962217553711 z" fill="#2f2e41" id="svg_24"/><path d="M600.4294951464843,334.2962217553711 c-12.41279,-9.495940000000001 -24.74982,-10.2461 -37,-1 l3.3452800000000003,-37.97331 a20.64686,20.64686 0 0 1 19.66171,-20.97941 h0 a20.64684,20.64684 0 0 1 21.626,20.96754 z" fill="#f063b8" id="svg_25"/><ellipse cx="596.9295043945312" cy="242.29620361328125" rx="4" ry="7.5" fill="#ffb8b8" id="svg_26"/><path d="M605.9294951464843,225.0622117553711 v-33.266 a3,3 0 0 0 -3,-3 h-6 a3,3 0 0 0 -3,3 v31.25946 a18.96194,18.96194 0 1 0 12,2.00653 z" fill="#f063b8" id="svg_27"/><circle cx="597.9295043945312" cy="241.79620361328125" r="9" fill="#fff" id="svg_28"/><polygon points="757.569 743.732 0 743.732 0 741.551 757.964 741.551 757.569 743.732" fill="#3f3d56" id="svg_29"/></g></svg>