<svg width="512" height="512" xmlns="http://www.w3.org/2000/svg">

 <g>
  <title>background</title>
  <rect fill="none" id="canvas_background" height="402" width="582" y="-1" x="-1"/>
 </g>
 <g>
  <title>Layer 1</title>
  <path id="svg_2" fill="#f063b8" d="m513.06136,256c0,141.4 -114.6,256 -256,256c-141.4,0 -256,-114.6 -256,-256c0,-141.4 114.6,-256 256,-256c141.4,0 256,114.6 256,256z"/>
  <path id="svg_4" fill="#FFFFFF" d="m391.1,194.6c-2.3,-19.9 -7.1,-25.7 -10.5,-28.4c-5.4,-4.2 -15.2,-5.7 -28.3,-6.6c-21,-1.4 -56.7,-2.3 -95.2,-2.3c-38.6,0 -74.2,0.8 -95.2,2.3c-13.1,0.9 -22.9,2.4 -28.3,6.6c-3.4,2.7 -8.1,8.5 -10.5,28.4c-3.4,28.7 -3.4,94.1 0,122.8c2.4,19.9 7.1,25.7 10.5,28.4c5.4,4.2 15.2,5.7 28.3,6.6c21,1.4 56.6,2.3 95.2,2.3c38.6,0 74.2,-0.9 95.2,-2.3c13.1,-0.9 22.9,-2.4 28.3,-6.6c3.4,-2.6 8.1,-8.5 10.5,-28.4c3.4,-28.7 3.4,-94.1 0,-122.8zm-167,104.3l0,-85.9l82.4,42.9l-82.4,43z"/>
 </g>
</svg>